<svg id="complete_work" data-name="complete work" xmlns="http://www.w3.org/2000/svg" viewBox="0 0 2560 1440"><defs><style>.cls-1,.cls-5{fill:#e9f7fb;}.cls-1{stroke:#dae7eb;stroke-miterlimit:10;}.cls-2{fill:#dcedf2;}.cls-3{fill:#c6d4d9;}.cls-4{fill:#fff;}</style></defs><path class="cls-1" d="M1597,432.22c0,184.12-159.21,267.34-350.67,267.34-197.75,0-341.57-82.84-350.67-267.34C882.82,171.73,1046,71.64,1246.33,73,1455.08,74.44,1597,160.48,1597,432.22Z"/><path class="cls-2" d="M1429.85,432.71c-23.31-30.83-71.62-31.27-100.52-8-7.5,6-12.95,15.53-11.55,25.05,1.74,11.75,12.9,19.7,23.85,24.29a103.75,103.75,0,0,0,67.55,4.11c12.94-3.64,26.8-12.14,27.87-25.54C1437.62,445.45,1434.21,438.47,1429.85,432.71Z"/><path class="cls-3" d="M1155.64,427.15c-15.48-20.47-47.54-20.76-66.72-5.3-5,4-8.6,10.31-7.66,16.63,1.15,7.8,8.55,13.08,15.82,16.12a68.83,68.83,0,0,0,44.84,2.73c8.58-2.42,17.78-8.06,18.49-16.95C1160.79,435.6,1158.53,431,1155.64,427.15Z"/><path class="cls-2" d="M1177.54,425.19c7.49,6,13,15.54,11.54,25.06-1.73,11.75-12.89,19.7-23.85,24.28a103.75,103.75,0,0,1-67.55,4.12c-12.93-3.64-26.8-12.15-27.86-25.54-.58-7.21,2.83-14.18,7.19-19.94C1100.33,402.33,1148.63,401.9,1177.54,425.19Z"/><circle cx="1372.42" cy="466.17" r="22.73"/><ellipse class="cls-4" cx="1358.62" cy="463.73" rx="2.84" ry="6.49"/><circle cx="1132.16" cy="467.79" r="22.73"/><ellipse class="cls-4" cx="1118.36" cy="465.36" rx="2.84" ry="6.49"/><path d="M1272.12,566.76c8.46-.5,17.28-1.23,24.25-4.21,1.52-.65,3.05-1.56,3-2.69s-2-2.11-3.9-2.29a22.28,22.28,0,0,0-5.76.51,185.25,185.25,0,0,1-63.2-.1c-2.25-.4-4.79-.82-6.82-.11-9.11,3.16,16,8.16,18.58,8.49C1249.36,567.79,1260.9,567.43,1272.12,566.76Z"/><path class="cls-5" d="M1099.34,694.16c-61.24,73.47-124.18,150.41-139.4,238.57-7.39,42.81-3.07,86.4,3.92,129.26,2.4,14.72,5.48,30.14,16.63,41.83s33.07,17.82,47.8,9.21c13.78-8.06,15.19-24,17-37.84,4.81-37.63,21.55-73.41,33.85-109.87s23.72-78,10.63-114.25a74.78,74.78,0,0,1,10.58,27.72c2.55,15.65-.23,31.51-3.06,47.12-21.45,118.26-46.31,236.08-67.09,354.42-3.94,22.43-7.15,47.19,8.11,66.07,16.12,20,50,26.9,77.92,20s50-25.2,64.34-46.06,22-44.31,29.43-67.46q11.38-35.26,22.76-70.53c18.06,1.66,34.06,3.7,51.67,0q11.37,35.27,22.76,70.53c7.47,23.15,15.09,46.6,29.43,67.46s36.41,39.19,64.34,46.06,61.79-.06,77.92-20c15.26-18.88,12.05-43.64,8.11-66.07-20.78-118.34-45.64-236.16-67.09-354.42-2.84-15.61-5.61-31.47-3.07-47.12a75,75,0,0,1,10.59-27.72c-13.09,36.27-1.68,77.79,10.63,114.25s29,72.24,33.85,109.87c1.76,13.82,3.17,29.78,16.94,37.84,14.73,8.61,36.66,2.49,47.81-9.21s14.23-27.11,16.63-41.83c7-42.86,11.31-86.45,3.92-129.26-15.22-88.16-78.16-165.1-139.4-238.57-13.21-15.84-35.09-28.6-57-35.26s-45.37-9.22-68.69-10.42c-57.49-3-116.74,2.41-168.56,23.09C1112.16,676.09,1106.46,685.62,1099.34,694.16Z"/></svg>