<svg id="body" xmlns="http://www.w3.org/2000/svg" viewBox="0 0 2560 1440"><defs><style>.cls-1,.cls-4,.cls-5{fill:#e9f7fb;}.cls-2{fill:#dcedf2;}.cls-3{fill:#fff;}.cls-4,.cls-5{stroke:#e0eef2;stroke-miterlimit:10;stroke-width:2px;}.cls-4{stroke-linecap:round;}</style></defs><path class="cls-1" d="M515.77,549.32c19.66,25.95,35,54.84,50.32,83.59,7.28,13.71,14.6,27.48,19.8,42.11,13.2,37.19,12,77.72,10.57,117.15-.78,21.17-2,45.39-19.25,57.63-1.77,5.5-8.66,8.05-14.28,6.67s-10.06-5.65-13.62-10.21c-13.39-17.11-13.47-36.35-17-56.94-1.48-8.58-3.6-23-10.76-28.28-12,10.07,1,60.07,3.62,74.23,2,10.7,4.44,21.31,6.68,32a871,871,0,0,1,16.57,120.22c.83,12.47,1.35,25.35-2.89,37.11s-14.38,22.24-26.85,23.14c-7,.49-13.79-2-20.18-4.79a172.19,172.19,0,0,1-44.4-28.4c-6.59-5.83-12.92-12.42-15.95-20.68-2.26-6.15-2.55-12.81-3-19.34a339,339,0,0,0-14.39-76.86c-14.83,3.3-31.69,4.64-46.73,2.5-8.32,56.73-15.42,117.12-12.67,174.39.27,5.51-3.86,10.49-8.84,12.88s-10.66,2.71-16.18,2.86a359.11,359.11,0,0,1-40-1.16c-6.59-.56-13.73-1.57-18.35-6.31-4-4.06-5.17-10-6.16-15.57-11.08-63-16.32-128.44-13-192.29-7.65,10-18.51,19.29-31.14,19-9.62-.23-18.41-6.15-24.3-13.76s-9.32-16.8-12.43-25.91c-10.28-30.17-18-61.58-18.16-93.45-.23-67.89,33.79-130.82,69.91-188.31C333.28,574,422.88,552.32,513.34,546,515.1,545.87,516.88,548,515.77,549.32Z"/><path class="cls-1" d="M611.48,375c8.61,132.79-102.32,200.25-240.4,209.2-142.61,9.24-250.21-43.79-265.39-176.42C84.25,220.54,197.22,140.74,341.8,132.36,492.42,123.63,598.78,179.05,611.48,375Z"/><path class="cls-2" d="M479.88,413.42c-15.45-17.89-44.95-16.25-61.67-.89-4.34,4-7.29,10-6.06,15.75,1.53,7.1,8.65,11.52,15.52,13.88a63.4,63.4,0,0,0,41.39-.16c7.75-2.73,15.87-8.47,16-16.69C485.12,420.89,482.76,416.77,479.88,413.42Z"/><path class="cls-2" d="M311.16,419.75c4.82,3.39,8.52,9,8,14.83-.6,7.24-7.09,12.54-13.6,15.77a63.44,63.44,0,0,1-41.06,5.18c-8-1.71-16.84-6.35-18-14.48-.63-4.38,1.17-8.77,3.61-12.46C263.14,408.85,292.6,406.67,311.16,419.75Z"/><circle cx="452.13" cy="435.87" r="16.42"/><ellipse class="cls-3" cx="442.07" cy="434.76" rx="2.05" ry="4.69" transform="translate(-27.19 29.5) rotate(-3.71)"/><circle cx="278.94" cy="448.27" r="16.42"/><ellipse class="cls-3" cx="268.88" cy="447.16" rx="2.05" ry="4.69" transform="translate(-28.35 18.32) rotate(-3.71)"/><path d="M384.5,513.1c6.08-.75,12.41-1.69,17.29-4.16,1.07-.54,2.13-1.27,2-2.09s-1.52-1.42-2.92-1.46a16,16,0,0,0-4.13.63,134,134,0,0,1-45.59,2.89,10.19,10.19,0,0,0-4.93.23c-6.42,2.7,11.93,5.14,13.8,5.26C368.14,514.91,376.44,514.11,384.5,513.1Z"/><path class="cls-4" d="M286.33,687.71a496.83,496.83,0,0,0-27.55,185.88c0,.93-.55,1.63-.57,2.56"/><path class="cls-5" d="M512,651.72c-7.78,17.88-5.11,38.36-2.3,57.65q2.17,15,4.36,30c1.08,7.43,2.28,15.16,6.59,21.3.43.12.71,0,1,.33"/></svg>